<?xml version="1.0" encoding="UTF-8"?>
<svg id="Layer_1" data-name="Layer 1" xmlns="http://www.w3.org/2000/svg" viewBox="0 0 2000 2000">
  <defs>
    <style>
      .cls-1 {
        fill: #fff;
      }

      .cls-2 {
        fill: #e6e6e6;
      }

      .cls-3 {
        fill: #ccc;
      }
    </style>
  </defs>
  <path class="cls-1" d="m1857.29,1097.49c.52-6.04.79-12.15.79-18.3,0-57.26-22.4-110.23-60.39-153.29-56.09-63.6-146.18-105.6-248.34-108.01-16.08-62.44-83.5-109.29-164.24-109.29-35.49,0-68.39,9.06-95.51,24.5-26.72-119.92-154.47-210.8-308.07-210.8-143.38,0-264.25,79.19-301.44,187.26-3.47,2.22-6.88,4.5-10.22,6.84-29.32-20.9-67.57-33.55-109.43-33.55-92.29,0-167.08,61.49-167.08,137.34v.34c-67.41,8.73-126.62,37.74-168.08,79.21-.97.95-1.9,1.92-2.84,2.89-.39.38-.76.77-1.11,1.16-3.16,3.31-6.22,6.69-9.13,10.14-8.36,9.84-15.77,20.25-22.14,31.16-74.87,13.6-130.86,68.46-130.86,134.1,0,4.3.24,8.56.73,12.75,7.81,69.88,79.29,124.6,166.35,124.6,3.61,0,7.2-.1,10.75-.29-6.86,11.05-10.75,23.54-10.75,36.78,0,44.71,44.08,80.95,98.47,80.95,25.8,0,49.26-8.17,66.82-21.5,50.02,47.31,123.76,77.23,206.01,77.23,54.21,0,104.72-13,147.19-35.4,45,72.97,137.12,122.99,243.46,122.99,71.23,0,136.07-22.45,184.65-59.2,30.16,35.77,80.45,59.2,137.41,59.2,64.47,0,120.42-30.03,148.28-73.99,27.85,43.96,83.79,73.99,148.26,73.99s121.93-30.84,149.38-75.79c.56-.92,1.1-1.83,1.63-2.75,1.08-1.84,2.09-3.71,3.06-5.6.47-.95.95-1.9,1.41-2.86.46-.95.91-1.92,1.34-2.88.43-.96.86-1.94,1.26-2.92.4-.96.8-1.94,1.19-2.93,0-.02.01-.05.01-.07.37-.96.74-1.93,1.08-2.91.36-1,.7-2,1.02-3,.3-.88.56-1.77.83-2.66.31-1.03.61-2.06.89-3.11.21-.76.4-1.53.59-2.3,1.11-4.47,1.96-9.02,2.53-13.65.28.01.56.01.85.01,1.44,0,2.88-.01,4.31-.05,1.28-.02,2.55-.06,3.82-.12.34,0,.67-.01.99-.04,1.04-.04,2.08-.1,3.1-.16.34-.01.68-.04,1.02-.06,1.29-.09,2.55-.17,3.83-.28,1.41-.12,2.81-.24,4.2-.39,1.38-.15,2.78-.31,4.16-.49,1.38-.17,2.76-.35,4.13-.56,1.38-.2,2.73-.42,4.1-.65,1.34-.22,2.67-.46,4-.71.03,0,.04-.01.06-.01,1.35-.26,2.69-.53,4.02-.81,1.34-.28,2.66-.57,3.98-.89h.03c1.22-.28,2.44-.59,3.65-.9,1.49-.37,2.97-.76,4.44-1.17.73-.21,1.46-.42,2.17-.63.47-.12.95-.27,1.43-.41,63.7-19.17,109.23-69.31,109.62-128.24v-.11c0-.22.01-.44.01-.66,0-50.88-33.67-95.31-83.7-119.04Z"/>
  <path class="cls-3" d="m1940.99,1216.53c0,22.13-6.37,43.05-17.7,61.57-19.53,31.99-53.82,56.82-95.53,68.49-16.9,4.72-35,7.29-53.85,7.29-.28,0-.56,0-.85-.01-2.08,16.98-7.93,33.05-16.86,47.64-27.45,44.95-84.03,75.79-149.38,75.79s-120.42-30.03-148.26-73.99c-27.86,43.96-83.81,73.99-148.28,73.99-56.96,0-107.24-23.43-137.41-59.2-48.58,36.75-113.42,59.2-184.65,59.2-106.34,0-198.46-50.02-243.46-122.99-42.48,22.4-92.99,35.4-147.19,35.4-82.25,0-155.99-29.92-206.01-77.23-17.55,13.33-41.02,21.5-66.82,21.5-54.39,0-98.47-36.25-98.47-80.95,0-13.25,3.89-25.74,10.75-36.78-3.55.2-7.14.29-10.75.29-92.29,0-167.08-61.49-167.08-137.34,0-54.25,38.26-101.15,93.82-123.46,11.64-4.68,24.06-8.28,37.04-10.63,9.54-16.31,21.39-31.52,35.23-45.35l43.83,2.2c24.98-11.61,53.85-18.23,84.58-18.23,14.35,0,28.26,1.45,41.58,4.18,10.35-4.37,24.28-7.04,39.59-7.04,7.38,0,14.44.62,20.94,1.76,23.11-21.94,57.25-35.82,95.33-35.82,43.31,0,81.52,17.95,104.23,45.28,66.71-46.21,152.87-74.04,246.94-74.04,107.5,0,204.64,36.37,274.26,94.93,10.08-6.97,23.08-11.18,37.28-11.18,15.55,0,29.66,5.04,40.05,13.25,2.29-.11,4.57-.17,6.89-.17,41.54,0,78.39,16.51,101.38,41.98,14.87,16.49,23.94,36.75,24.68,58.71,20.01-10.98,44.03-17.36,69.89-17.36,34.87,0,66.45,11.63,89.27,30.45,12.89-22.88,31.32-43.22,53.88-59.86,4.2-3.1,8.55-6.08,13.04-8.9,6.88-4.37,14.06-8.4,21.55-12.06,33.65-16.6,73.04-26.14,115.14-26.14,16.49,0,32.57,1.47,48.04,4.24,37.99,43.06,60.39,96.03,60.39,153.29,0,6.15-.27,12.26-.79,18.3,50.04,23.73,83.7,68.16,83.7,119.04Z"/>
  <path class="cls-2" d="m1857.3,1097.49c.52-6.04.79-12.15.79-18.3,0-57.25-22.4-110.23-60.39-153.28-15.48-2.78-31.56-4.25-48.05-4.25-42.1,0-81.49,9.53-115.14,26.14-7.49,3.67-14.67,7.69-21.55,12.06-4.49,2.82-8.84,5.81-13.04,8.91-22.56,16.63-40.99,36.98-53.88,59.85-22.83-18.82-54.4-30.45-89.27-30.45-25.86,0-49.89,6.39-69.89,17.36-.74-21.97-9.82-42.22-24.68-58.71-22.99-25.49-59.84-41.99-101.38-41.99-2.32,0-4.6.06-6.89.16-10.4-8.2-24.51-13.23-40.05-13.23-14.2,0-27.19,4.2-37.28,11.17-69.62-58.56-166.77-94.93-274.26-94.93-94.07,0-180.22,27.85-246.94,74.05-22.71-27.34-60.92-45.28-104.23-45.28-38.08,0-72.22,13.89-95.33,35.82-6.51-1.14-13.56-1.75-20.94-1.75-15.31,0-29.24,2.67-39.59,7.04-13.32-2.72-27.24-4.17-41.58-4.17-30.73,0-59.6,6.61-84.58,18.22l-43.83-2.2c-.97.95-1.9,1.92-2.84,2.9-.39.37-.76.77-1.11,1.16-.79.83-1.56,1.66-2.35,2.49-2.32,2.51-4.56,5.06-6.77,7.65h-.01c-1.04,1.23-2.08,2.47-3.09,3.71-1.01,1.25-2.02,2.51-3,3.77-.98,1.28-1.96,2.54-2.91,3.83-.83,1.1-1.65,2.23-2.45,3.34-.21.31-.43.61-.65.92-.82,1.17-1.63,2.35-2.44,3.52-.02.01-.02.03-.03.03-.88,1.31-1.75,2.63-2.6,3.95-.65,1.01-1.31,2.02-1.93,3.04-.31.5-.62,1.01-.94,1.52-.71,1.17-1.43,2.35-2.11,3.52-1.31.24-2.6.49-3.88.74-.7.15-1.38.28-2.06.45-1.17.24-2.35.51-3.5.77-.09.01-.16.03-.24.06-1.38.31-2.76.65-4.13,1.01-.03,0-.07.01-.1.03-.92.24-1.84.48-2.76.74-.24.06-.46.12-.7.19-.89.24-1.78.49-2.66.76-.67.19-1.32.39-1.99.59-.61.18-1.22.37-1.81.56-.34.1-.67.21-1.01.33-1,.31-1.99.64-2.97.98-1.08.36-2.15.74-3.21,1.13-.76.27-1.51.55-2.27.83-3.52,1.32-6.98,2.75-10.38,4.28-.79.36-1.57.71-2.36,1.08-1.01.46-2.02.95-3.01,1.44-1,.49-1.99.98-2.97,1.49-1,.5-1.98,1.02-2.94,1.54-.98.52-1.95,1.04-2.9,1.59-.97.53-1.92,1.08-2.85,1.63-.95.55-1.89,1.11-2.81,1.68-1.72,1.05-3.4,2.12-5.06,3.22-.15.1-.28.19-.42.28-.91.61-1.8,1.22-2.67,1.83-.76.52-1.51,1.05-2.26,1.59-1.13.82-2.23,1.63-3.33,2.47-.73.55-1.44,1.11-2.15,1.66-.83.67-1.66,1.32-2.48,2.01-2.38,1.95-4.69,3.97-6.92,6.03-.83.77-1.66,1.56-2.48,2.35-.74.73-1.49,1.46-2.21,2.2-.5.5-1.01,1.02-1.5,1.54l-1.11,1.16c-.55.59-1.1,1.2-1.65,1.8-.48.52-.95,1.05-1.4,1.57-.83.94-1.65,1.87-2.44,2.82-.55.65-1.08,1.31-1.6,1.96-.49.61-.98,1.22-1.44,1.83-.42.53-.83,1.07-1.23,1.6-.5.65-1,1.31-1.46,1.98-1.14,1.56-2.24,3.15-3.31,4.75-.43.67-.86,1.32-1.28,1.99-1.46,2.27-2.82,4.57-4.11,6.92-.73,1.32-1.43,2.64-2.11,3.99-.45.86-.88,1.74-1.28,2.61-.25.53-.5,1.05-.74,1.59-.28.61-.56,1.22-.82,1.83-.36.76-.67,1.51-.98,2.29-.85,2.03-1.63,4.1-2.36,6.18-.27.73-.52,1.46-.76,2.2-.22.7-.45,1.4-.67,2.09-.18.61-.37,1.2-.53,1.81-.49,1.68-.95,3.37-1.35,5.06-.24.94-.45,1.87-.64,2.81-.16.76-.33,1.5-.46,2.26-.1.52-.21,1.04-.3,1.57-.06.28-.1.56-.15.83-.12.65-.22,1.32-.33,1.99-.15.88-.27,1.74-.37,2.61-.13.91-.24,1.81-.33,2.72-.1.94-.19,1.87-.27,2.81-.01.21-.03.42-.04.61-.06.62-.1,1.25-.12,1.87-.04.52-.07,1.05-.09,1.59-.09,1.75-.13,3.52-.13,5.3,0,1.19.01,2.36.06,3.55.03,1.16.09,2.3.16,3.46,0,.09,0,.18.01.27.06.95.12,1.89.22,2.84.07.88.16,1.75.27,2.63,25.37,33.45,70.55,55.72,122.05,55.72,11.76,0,23.2-1.17,34.14-3.36,5.99,32.42,40.03,57.28,81.15,57.28,1.99,0,3.97-.06,5.91-.18,6.13,39.85,47.53,70.68,97.68,70.68,9.64,0,18.95-1.14,27.76-3.27v.25c0,37.28,37.77,67.5,84.36,67.5,25.47,0,48.33-9.04,63.79-23.33,30.1,9.42,62.78,14.57,96.92,14.57,30.27,0,59.38-4.05,86.57-11.52,8.75,29.82,42.19,52.01,82.11,52.01,13.02,0,25.37-2.35,36.37-6.56,13.44,35.21,54.37,60.82,102.79,60.82,17.2,0,33.46-3.24,47.87-8.99,11.44,1.22,23.11,1.84,34.95,1.84,71.23,0,136.07-22.46,184.65-59.2,30.16,35.76,80.45,59.2,137.41,59.2,64.47,0,120.42-30.04,148.28-74.01,27.85,43.96,83.79,74.01,148.26,74.01,26.29,0,51.15-5.01,73.26-13.9.56-.91,1.1-1.83,1.63-2.75,1.07-1.84,2.08-3.73,3.06-5.6.47-.95.95-1.9,1.41-2.87.46-.95.91-1.92,1.34-2.88.43-.97.86-1.93,1.26-2.91.4-.97.8-1.95,1.19-2.93,0-.03.01-.06.01-.07.37-.97.74-1.93,1.08-2.91.36-1,.7-2.01,1.02-3,.27-.83.53-1.66.79-2.49.01-.06.03-.1.04-.16.31-1.02.61-2.06.89-3.12.13-.5.27-1.02.4-1.53.06-.25.13-.51.19-.76.03-.15.07-.3.1-.45.16-.62.31-1.26.45-1.9.12-.46.22-.92.31-1.4.18-.8.34-1.62.49-2.44.04-.24.09-.48.13-.71.18-.97.36-1.93.49-2.91.21-1.28.39-2.55.55-3.85h.85c1.44,0,2.88,0,4.31-.04.88-.01,1.74-.04,2.6-.07.4-.01.82-.03,1.22-.04.34,0,.67-.02.99-.04.46-.01.94-.03,1.4-.06,1.16-.06,2.32-.13,3.48-.21,2.17-.15,4.34-.33,6.49-.55.27-.01.53-.04.8-.07,1-.1,1.99-.22,2.99-.34.39-.04.79-.09,1.17-.15.74-.09,1.47-.18,2.21-.28.33-.04.64-.07.95-.13.8-.1,1.6-.22,2.41-.36.89-.13,1.78-.28,2.66-.43,1.34-.22,2.67-.46,3.99-.71.45-.07.88-.16,1.31-.25.94-.18,1.86-.37,2.78-.56.67-.15,1.34-.28,1.99-.43.67-.15,1.32-.3,1.99-.46h.03s.1-.03.15-.03c1.17-.28,2.33-.56,3.51-.86,1.49-.37,2.97-.76,4.44-1.17.01-.01.01-.03.01-.04.71-.19,1.44-.39,2.15-.59.16-.04.34-.09.5-.13.13-.04.25-.07.39-.12.18-.04.36-.1.53-.16.37-.1.73-.21,1.1-.33,39.58-12.18,72.05-36.33,90.83-67.11,11.14-18.22,17.5-38.75,17.69-60.48v-.43c0-.22.01-.45.01-.65,0-50.9-33.67-95.32-83.7-119.05Z"/>
  <path class="cls-1" d="m445.39,1018.51c-22.16-24.59-53.49-39.93-88.22-39.93s-66.06,15.34-88.23,39.93c25.26-13.52,55.6-21.4,88.23-21.4s62.96,7.88,88.22,21.4Z"/>
  <path class="cls-1" d="m842.38,969.34c-22.16-24.59-53.49-39.93-88.22-39.93s-66.06,15.34-88.23,39.93c25.26-13.52,55.6-21.4,88.23-21.4s62.96,7.88,88.22,21.4Z"/>
  <path class="cls-2" d="m1164.44,796.04c-22.16-24.59-53.49-39.93-88.22-39.93s-66.06,15.34-88.23,39.93c25.26-13.52,55.6-21.4,88.23-21.4s62.96,7.88,88.22,21.4Z"/>
  <path class="cls-2" d="m720.87,789.83c-15.91-27.67-42.99-47.73-77.06-53.3-34.06-5.57-68.43,4.46-96,25.03,27.99-9.22,59.61-12.08,91.61-6.85,31.99,5.23,59.88,17.82,81.45,35.12Z"/>
  <path class="cls-2" d="m1540.01,896.08c16.04-30.56,17.91-65.12,1.78-95.85-16.13-30.73-47.1-51.63-83.73-60.29,26.21,16.33,48.74,39.67,63.89,68.54,15.15,28.87,20.8,59.22,18.06,87.6Z"/>
  <path class="cls-1" d="m1641.22,1168.19c-22.16-14.25-53.49-23.14-88.22-23.14s-66.06,8.89-88.23,23.14c25.26-7.84,55.6-12.4,88.23-12.4s62.96,4.57,88.22,12.4Z"/>
  <path class="cls-3" d="m1164.44,1252.59c-22.16,19.12-53.49,31.04-88.22,31.04s-66.06-11.92-88.23-31.05c25.26,10.51,55.6,16.64,88.23,16.64s62.96-6.13,88.22-16.64Z"/>
  <path class="cls-3" d="m381.3,1175.83c-18.93,7.21-37.82,7.79-51.86.01-14.04-7.77-20.5-22.38-19.49-39.51,4.73,12.35,13.81,23.04,27,30.34,13.19,7.3,28.65,10.19,44.35,9.16Z"/>
</svg>