<?xml version="1.0" encoding="UTF-8"?>
<svg id="Layer_1" data-name="Layer 1" xmlns="http://www.w3.org/2000/svg" viewBox="0 0 2000 2000">
  <defs>
    <style>
      .cls-1 {
        fill: #fff;
      }

      .cls-2 {
        fill: #e6e6e6;
      }

      .cls-3 {
        fill: #ccc;
      }
    </style>
  </defs>
  <path class="cls-1" d="m1837.53,1174.45c0,175.64-142.38,318.02-318.02,318.02-54.28,0-105.37-13.62-150.08-37.59-30.54,33.03-74.21,53.73-122.75,53.73-33.02,0-63.8-9.59-89.72-26.12-30.22,43.13-80.27,71.32-136.92,71.32-47.75,0-90.8-20.02-121.25-52.11-45.06,32.88-100.56,52.29-160.62,52.29-95.9,0-180.24-49.5-228.88-124.32-13.23,6.61-28.14,10.34-43.93,10.34-48.36,0-88.53-34.86-96.86-80.81-12.43,2.96-25.41,4.53-38.75,4.53-92.27,0-167.08-74.81-167.08-167.08,0-50.06,22.02-94.99,56.91-125.61,9.62-8.45,20.23-15.82,31.62-21.89,5.48-2.93,11.14-5.55,16.96-7.86,1.26-12.7,3.4-25.14,6.36-37.26,28.83-118.49,135-206.67,262.01-208.09,13.87-78.28,82.25-137.73,164.51-137.73,5.2,0,10.32.24,15.39.71,40.6-123.86,157.13-213.31,294.57-213.31,148.56,0,272.69,104.53,302.9,244.04,49.32,8.97,91.08,39.58,115.1,81.64,15.39-9.95,33.7-15.74,53.38-15.74,54.39,0,98.47,44.09,98.47,98.48,0,2.79-.13,5.54-.37,8.29,63.52,12.34,120.3,43.57,164.21,87.62,57.37,57.52,92.84,136.87,92.84,224.53Z"/>
  <path class="cls-2" d="m1744.69,949.93c-69.03,24.03-125.61,74.64-157.52,139.56-15.3-4.37-31.43-6.7-48.1-6.7-72.07,0-133.96,43.55-160.81,105.76-32.04-13.72-67.29-21.34-104.33-21.34-4.46,0-8.87.12-13.26.34-24.49-65.96-87.98-112.95-162.45-112.95-35.35,0-68.2,10.59-95.6,28.75-16.03-48.54-61.72-83.57-115.63-83.57-28.05,0-53.88,9.52-74.48,25.47-51.67-99.24-155.42-167.02-275.05-167.02-110.88,0-208.15,58.23-262.92,145.78-2.95,12.09-5.08,24.5-6.35,37.17-34.39,13.67-63.16,38.42-81.93,69.84,0,0,0,0,0,0-.71,1.2-1.41,2.4-2.1,3.62-.08.14-.16.29-.24.43-.6,1.08-1.2,2.16-1.78,3.25-.13.24-.25.47-.38.71-.53,1.01-1.05,2.02-1.55,3.04-.15.3-.3.6-.45.91-.47.96-.93,1.93-1.39,2.9-.16.35-.33.7-.49,1.05-.43.93-.85,1.88-1.26,2.82-.17.38-.34.77-.5,1.15-.4.93-.78,1.87-1.16,2.8-.16.4-.33.79-.49,1.19-.38.95-.74,1.92-1.11,2.88-.15.39-.3.77-.44,1.16-.41,1.12-.81,2.24-1.19,3.37-.08.23-.17.46-.24.69-.45,1.33-.89,2.67-1.3,4.02-.18.59-.35,1.19-.53,1.79-.23.77-.46,1.53-.68,2.3-.2.69-.38,1.39-.56,2.09-.18.68-.37,1.37-.54,2.05-.19.73-.36,1.47-.54,2.21-.16.66-.32,1.31-.47,1.97-.17.76-.33,1.52-.5,2.28-.14.65-.27,1.29-.41,1.94-.15.77-.3,1.54-.44,2.32-.12.65-.24,1.3-.35,1.96-.13.78-.26,1.55-.39,2.33-.1.66-.2,1.32-.3,1.98-.11.78-.22,1.56-.33,2.35-.09.67-.17,1.34-.25,2.01-.09.78-.18,1.55-.27,2.34-.07.69-.14,1.39-.2,2.09-.07.77-.14,1.53-.2,2.3-.06.74-.1,1.48-.15,2.22-.05.73-.1,1.46-.14,2.19-.04.84-.07,1.68-.1,2.53-.02.64-.06,1.28-.07,1.92-.04,1.33-.05,2.67-.06,4.02,0,.15,0,.29,0,.43,0,0,0,.01,0,.02s0,.01,0,.02c0,92.38,74.89,167.27,167.27,167.27,13.29,0,26.21-1.56,38.61-4.49,8.44,45.81,48.55,80.53,96.81,80.53,15.79,0,30.7-3.73,43.93-10.34,48.64,74.82,132.98,124.32,228.88,124.32,60.06,0,115.56-19.41,160.62-52.29,30.45,32.09,73.5,52.11,121.25,52.11,56.64,0,106.69-28.19,136.92-71.32,25.92,16.53,56.7,26.12,89.72,26.12,48.53,0,92.21-20.7,122.75-53.73,44.7,23.97,95.79,37.59,150.08,37.59,175.64,0,318.02-142.38,318.02-318.02,0-87.65-35.47-167.01-92.84-224.53Z"/>
  <g>
    <path class="cls-3" d="m765.99,566.82c-.27-.03-.52-.04-.79-.06.47-.64.98-1.28,1.49-1.92-.24.65-.48,1.31-.7,1.98Z"/>
    <path class="cls-3" d="m1788.13,1344.73c-56.41,88.8-155.63,147.73-268.62,147.73-54.28,0-105.37-13.6-150.09-37.59-30.52,33.04-74.2,53.73-122.73,53.73-33.03,0-63.8-9.58-89.73-26.11-30.21,43.11-80.26,71.32-136.92,71.32-47.73,0-90.79-20.02-121.23-52.13-45.06,32.88-100.58,52.31-160.62,52.31-95.91,0-180.24-49.5-228.89-124.34-13.22,6.61-28.13,10.35-43.93,10.35-48.34,0-88.53-34.86-96.86-80.81-12.43,2.96-25.4,4.51-38.73,4.51-92.27,0-167.08-74.79-167.08-167.08,0-33.86,10.07-65.38,27.4-91.69.22,92.11,77.93,166.69,173.76,166.69,13.86,0,27.36-1.56,40.28-4.51,8.67,45.95,50.45,80.81,100.74,80.81,16.43,0,31.93-3.74,45.68-10.35,50.6,74.84,138.31,124.34,238.06,124.34,62.45,0,120.18-19.43,167.04-52.31,31.66,32.11,76.44,52.13,126.09,52.13,58.92,0,110.97-28.2,142.4-71.32,26.96,16.53,58.98,26.11,93.31,26.11,50.47,0,95.91-20.69,127.65-53.73,46.5,23.99,99.64,37.59,156.09,37.59,69.37,0,133.77-20.54,186.95-55.65Z"/>
  </g>
  <path class="cls-2" d="m803.03,719.44c-22.58-11.86-47.69-18.47-74.15-18.47s-51.57,6.61-74.15,18.47c17.29-26.36,44.08-43.28,74.15-43.28s56.86,16.92,74.15,43.28Z"/>
  <path class="cls-2" d="m1276.19,715.83c-4.59-24.74-19.97-89.49-76.27-147.04-54.22-55.43-115.73-72.82-140.46-78.42,55.31-2.6,113.75,19.59,157.7,65.31,43.95,45.72,63.81,104.99,59.03,160.15Z"/>
  <path class="cls-2" d="m1080.36,959.13c-15.97-16.34-59.85-56.54-124.97-60.09-62.72-3.42-109.66,29.1-127.79,43.29,32.51-43.84,80.12-70.21,131.38-66.8,51.26,3.41,94.96,35.84,121.38,83.6Z"/>
  <path class="cls-2" d="m1357.77,1013.87c-5.11-21.39-15.25-40.89-30.65-56.91-15.39-16.01-34.48-26.92-55.66-32.87,27.91-6.69,54.95-1.49,72.46,16.72,17.5,18.21,21.63,45.44,13.85,73.06Z"/>
  <path class="cls-1" d="m844.3,1117.5c-5.11-21.39-15.25-40.89-30.65-56.91-15.39-16.01-34.48-26.92-55.66-32.87,27.91-6.69,54.95-1.49,72.46,16.72,17.5,18.21,21.63,45.44,13.85,73.06Z"/>
  <path class="cls-1" d="m1046.4,1129.82c-11.72-8.78-25.41-15.03-40.55-17.89-15.13-2.86-30.16-2.05-44.28,1.84,12.55-12.21,29.58-18.35,46.79-15.1,17.2,3.25,30.81,15.19,38.04,31.14Z"/>
  <path class="cls-1" d="m1637.42,1165.55c-13.1-11.13-28.78-20.11-46.5-25.98-17.71-5.87-35.66-8.03-52.81-6.92,16.09-9.77,36.92-12.56,57.06-5.89,20.14,6.67,35.18,21.35,42.25,38.79Z"/>
</svg>