<?xml version="1.0" encoding="UTF-8"?>
<svg id="Layer_1" data-name="Layer 1" xmlns="http://www.w3.org/2000/svg" viewBox="0 0 2000 2000">
  <defs>
    <style>
      .cls-1 {
        fill: #fff;
      }

      .cls-2 {
        fill: #e6e6e6;
      }

      .cls-3 {
        fill: #ccc;
      }
    </style>
  </defs>
  <path class="cls-1" d="m1888.93,1232.93c0,26.45-6.16,51.49-17.12,73.72,0,.01-.01.01-.01.03-22.54,45.8-65.48,79.77-116.96,90.06-10.68,2.14-21.73,3.27-33.03,3.27s-23.18-1.22-34.25-3.52c-1.11-.24-2.21-.48-3.31-.73-5.51-1.26-10.9-2.79-16.16-4.59-16.87-5.73-32.53-14.08-46.49-24.58,0,.02-.01.02-.01.03-23.42,43.23-65.33,74.97-115.13,84.58-10.34,1.99-21.01,3.04-31.93,3.04-1.46,0-2.91-.01-4.37-.07-.8,0-1.6-.03-2.41-.07-.34,0-.68-.01-1.04-.04-.95-.03-1.9-.09-2.85-.15-.13,0-.28-.01-.42-.01-1.08-.07-2.18-.16-3.27-.25-.09,0-.19-.01-.3-.03-1.13-.1-2.27-.21-3.4-.34-.16,0-.33-.01-.51-.04-1.05-.12-2.09-.24-3.15-.39-.09,0-.16-.01-.25-.03-1.16-.15-2.32-.31-3.48-.49-1.19-.18-2.38-.37-3.55-.58-1.19-.21-2.36-.43-3.52-.65-3.49-.7-6.95-1.5-10.35-2.39-.06-.01-.1-.01-.15-.04-1.11-.3-2.23-.61-3.33-.92-1.13-.33-2.26-.67-3.39-1.01-1.11-.36-2.23-.71-3.34-1.08-1.11-.39-2.23-.76-3.33-1.16-2.17-.77-4.32-1.6-6.46-2.45-.03-.01-.06-.01-.09-.04-1.07-.45-2.15-.89-3.22-1.35-13.89-6-26.79-13.83-38.42-23.18-.5.45-.98.86-1.44,1.26-.64.59-1.29,1.14-1.95,1.68-.31.25-.59.5-.88.74-.85.71-1.59,1.32-2.21,1.84-.21.16-.4.33-.58.48-.45.34-.88.7-1.31,1.04-.98.79-1.99,1.56-3,2.3-.89.68-1.81,1.35-2.72,2.01-.92.67-1.84,1.31-2.76,1.96-1.87,1.28-3.76,2.52-5.66,3.74-3.82,2.44-7.75,4.71-11.78,6.8-3.01,1.59-6.09,3.09-9.21,4.47-1.04.46-2.09.92-3.15,1.37-12.62,5.36-26.05,9.21-40.04,11.29-8.17,1.25-16.53,1.89-25.05,1.89-34.77,0-67.04-10.62-93.77-28.78-2.42,22.62-11.42,43.28-25.05,60-1.1,1.34-2.21,2.66-3.39,3.95-.43.49-.88.98-1.32,1.47-.58.62-1.16,1.25-1.77,1.87-.59.61-1.19,1.22-1.8,1.81-.39.4-.79.79-1.19,1.16-1.2,1.16-2.45,2.3-3.7,3.42-.7.61-1.4,1.2-2.11,1.8-.8.67-1.6,1.32-2.42,1.98-.8.64-1.63,1.28-2.47,1.9-.83.62-1.66,1.23-2.51,1.83-.85.61-1.71,1.19-2.57,1.77-.88.58-1.74,1.14-2.63,1.71-2.63,1.68-5.35,3.24-8.14,4.66-.94.49-1.87.95-2.81,1.41-2.82,1.4-5.72,2.66-8.67,3.79-.97.37-1.95.73-2.91,1.08-.04,0-.07.01-.1.03-11.96,4.25-24.85,6.56-38.26,6.56-48.79,0-90.43-30.53-106.9-73.53-2.51.07-5.03.12-7.57.12-80.61,0-153.03-34.98-202.98-90.55h-.01c-1.22,2.72-2.58,5.38-4.08,7.95-7.22,12.42-17.55,22.78-29.93,30.06-12.4,7.31-26.85,11.5-42.27,11.5-40.5,0-74.27-28.83-81.91-67.08-9.7,1.04-19.53,1.59-29.48,1.59-83.61,0-158.42-37.63-208.47-96.86-6.22,7.5-13.72,13.89-22.17,18.85-12.39,7.26-26.79,11.42-42.18,11.42-46.13,0-83.54-37.4-83.54-83.54,0-15.22,4.1-29.48,11.2-41.76-1.69-1.23-3.36-2.5-5.01-3.77-5.03-3.91-9.88-8.02-14.54-12.34-1.22-1.13-2.42-2.26-3.61-3.42-1.2-1.17-2.39-2.36-3.58-3.55-29.5-29.99-50.35-68.5-58.52-111.51-2.52-13.2-3.83-26.84-3.83-40.77,0-119.93,97.2-217.13,217.12-217.13,5.51,0,10.98.21,16.38.61,32.57-78.8,110.17-134.27,200.75-134.27,19.37,0,38.12,2.55,55.99,7.31,31.28-102.55,126.61-177.16,239.39-177.16,138.21,0,250.25,112.04,250.25,250.25,0,.98-.03,1.95-.04,2.93,12.12-1.92,24.52-2.93,37.17-2.93,59.57,0,113.96,22.11,155.45,58.55,15.03-14.52,35.48-23.48,58.04-23.48,31.35,0,58.66,17.29,72.95,42.83,19-4.43,38.85-6.79,59.29-6.79,111.25,0,205.38,69.55,236.73,165.34,3.64-.49,7.34-.76,11.11-.76,37,0,68.36,24.03,79.34,57.33,2.73,8.24,4.2,17.05,4.2,26.21,0,16.9-5.03,32.63-13.66,45.77,57.37,26.47,97.2,84.48,97.2,151.81Z"/>
  <path class="cls-2" d="m1888.93,1232.93c0,26.45-6.16,51.49-17.12,73.72h-.01v.03c-22.54,45.8-65.48,79.77-116.96,90.06-10.68,2.14-21.73,3.27-33.03,3.27s-23.18-1.22-34.25-3.52c-1.11-.24-2.21-.48-3.31-.73-5.51-1.26-10.9-2.79-16.16-4.59-16.87-5.73-32.53-14.08-46.49-24.58,0,.02-.01.02-.01.03-23.42,43.23-65.33,74.97-115.13,84.58-10.34,1.99-21.01,3.04-31.93,3.04-1.46,0-2.91-.01-4.37-.07-.8,0-1.6-.03-2.41-.07-.34,0-.68-.01-1.04-.04-.95-.03-1.9-.09-2.85-.15-.13,0-.28-.01-.42-.01-1.08-.07-2.18-.16-3.27-.25-.09,0-.19-.01-.3-.03-1.13-.1-2.27-.21-3.4-.34-.16,0-.33-.01-.51-.04-1.05-.12-2.09-.24-3.15-.39-.09,0-.16-.01-.25-.03-1.16-.15-2.32-.31-3.48-.49-1.19-.18-2.38-.37-3.55-.58-1.19-.21-2.36-.43-3.52-.65-3.49-.7-6.95-1.5-10.35-2.39-.06-.01-.1-.01-.15-.04-1.11-.3-2.23-.61-3.33-.92-1.13-.33-2.26-.67-3.39-1.01-1.11-.36-2.23-.71-3.34-1.08-1.11-.39-2.23-.76-3.33-1.16-2.17-.77-4.32-1.6-6.46-2.45-.03-.01-.06-.01-.09-.04-1.07-.45-2.15-.89-3.22-1.35-13.89-6-26.79-13.83-38.42-23.18-.5.45-.98.86-1.44,1.26-.64.59-1.29,1.14-1.95,1.68-.31.25-.59.5-.88.74-.85.71-1.59,1.32-2.21,1.84-.21.16-.4.33-.58.48-.45.34-.88.7-1.31,1.04-.98.79-1.99,1.56-3,2.3-.89.68-1.81,1.35-2.72,2.01-.92.67-1.84,1.31-2.76,1.96-1.87,1.28-3.76,2.52-5.66,3.74-3.82,2.44-7.75,4.71-11.78,6.8-3.01,1.59-6.09,3.09-9.21,4.47-1.04.46-2.09.92-3.15,1.37-12.62,5.36-26.05,9.21-40.04,11.29-8.17,1.25-16.53,1.89-25.05,1.89-34.77,0-67.04-10.62-93.77-28.78-2.42,22.62-11.42,43.28-25.05,60-1.1,1.34-2.21,2.66-3.39,3.95-.43.49-.88.98-1.32,1.47-.58.62-1.16,1.25-1.77,1.87-.59.61-1.19,1.22-1.8,1.81-.39.4-.79.79-1.19,1.16-1.2,1.16-2.45,2.3-3.7,3.42-.7.61-1.4,1.2-2.11,1.8-.8.67-1.6,1.32-2.42,1.98-.8.64-1.63,1.28-2.47,1.9-.83.62-1.66,1.23-2.51,1.83-.85.61-1.71,1.19-2.57,1.77-.88.58-1.74,1.14-2.63,1.71-2.63,1.68-5.35,3.24-8.14,4.66-.94.49-1.87.95-2.81,1.41-2.82,1.4-5.72,2.66-8.67,3.79-.97.37-1.95.73-2.91,1.08-.04,0-.07.01-.1.03-11.96,4.25-24.85,6.56-38.26,6.56-48.79,0-90.43-30.53-106.9-73.53-2.51.07-5.03.12-7.57.12-80.61,0-153.03-34.98-202.98-90.55h-.01c-1.22,2.72-2.58,5.38-4.08,7.95-7.22,12.42-17.55,22.78-29.93,30.06-12.4,7.31-26.85,11.5-42.27,11.5-40.5,0-74.27-28.83-81.91-67.08-9.7,1.04-19.53,1.59-29.48,1.59-83.61,0-158.42-37.63-208.47-96.86-6.22,7.5-13.72,13.89-22.17,18.85-12.39,7.26-26.79,11.42-42.18,11.42-46.13,0-83.54-37.4-83.54-83.54,0-15.22,4.1-29.48,11.2-41.76-1.69-1.23-3.36-2.5-5.01-3.77-5.03-3.91-9.88-8.02-14.54-12.34-1.22-1.13-2.42-2.26-3.61-3.42-1.2-1.17-2.39-2.36-3.58-3.55-29.5-29.99-50.35-68.5-58.52-111.51,19.52-105.09,111.67-184.66,222.42-184.66,81.61,0,153.11,43.22,192.91,108,.53.85,1.04,1.71,1.56,2.57,7.93-23.97,19.38-46.34,33.77-66.49,45.34-63.64,119.75-105.13,203.85-105.13,96.7,0,180.58,54.86,222.24,135.13,17.63-13.51,39.67-21.55,63.61-21.55,57.8,0,104.64,46.84,104.64,104.64v.07c42.73.94,82.53,13.71,116.27,35.18,41.55-39.43,109.62-65.12,186.57-65.12,93.8,0,174.43,38.21,209.88,92.91,32.02-24.3,76.56-43.17,128.36-53.7,2.73,8.24,4.2,17.05,4.2,26.21,0,16.9-5.03,32.63-13.66,45.77,57.37,26.47,97.2,84.48,97.2,151.81Z"/>
  <path class="cls-1" d="m592.32,1097.86c-36.27-25.44-60.96-66.64-63.65-114.32-2.81-49.71,18.94-95.12,54.69-124.44-25.64,32.64-40.17,76.74-37.48,124.42,2.54,45.01,19.97,85.13,46.44,114.34Z"/>
  <path class="cls-2" d="m985.79,690.78c25.56-5.83,53.44-.32,75.44,17.41,22.94,18.49,34.24,46.05,32.93,73.38-4.16-24.21-17.75-48.08-39.75-65.82-20.77-16.74-45.29-25-68.62-24.97Z"/>
  <path class="cls-2" d="m876.58,668.14c22.55-13.37,50.78-16.66,77.15-6.51,27.49,10.58,46.69,33.36,53.81,59.78-11.37-21.77-31.61-40.34-57.99-50.49-24.89-9.58-50.77-9.94-72.97-2.78Z"/>
  <path class="cls-2" d="m1583.67,894.2c25.56-5.83,53.44-.32,75.44,17.41,22.94,18.49,34.24,46.05,32.93,73.38-4.16-24.21-17.75-48.08-39.75-65.82-20.77-16.74-45.29-25-68.62-24.97Z"/>
  <path class="cls-2" d="m471.01,744.66c15.49-21.15,40.16-35.26,68.39-36.28,29.44-1.06,56.04,12.34,72.96,33.85-19-15.56-44.92-24.69-73.16-23.67-26.66.96-50.6,10.79-68.2,26.1Z"/>
  <path class="cls-1" d="m1430.96,1224.12c-37.95,22.87-85.62,28.75-130.3,11.91-46.59-17.56-79.31-55.83-91.64-100.39,19.46,36.66,53.9,67.81,98.59,84.65,42.18,15.9,85.92,16.21,123.35,3.83Z"/>
  <path class="cls-3" d="m1887.45,1254.88c-2.41,18.36-7.81,35.79-15.68,51.77,0,.01-.01.01-.01.03-22.54,45.79-65.45,79.74-116.91,90.06-10.68,2.14-21.73,3.27-33.03,3.27s-23.18-1.22-34.25-3.52c-1.11-.24-2.21-.48-3.31-.73-5.51-1.26-10.9-2.79-16.16-4.59-16.87-5.72-32.54-14.06-46.5-24.55-.01-.01-.01-.03-.03-.03-23.41,43.23-65.3,74.97-115.1,84.61-10.34,1.99-21.01,3.04-31.93,3.04-1.46,0-2.91-.01-4.37-.07-.8,0-1.6-.03-2.41-.07-.34,0-.68-.01-1.04-.04-.95-.03-1.9-.09-2.85-.15-.13,0-.28-.01-.42-.01-1.08-.07-2.18-.16-3.27-.25-.09,0-.19-.01-.3-.03-1.13-.1-2.27-.21-3.4-.34-.16,0-.33-.01-.51-.04-1.05-.12-2.09-.24-3.15-.39-.09,0-.16-.01-.25-.03-1.16-.15-2.32-.31-3.48-.49-1.19-.18-2.38-.37-3.55-.58-1.19-.21-2.36-.43-3.52-.65-3.49-.68-6.95-1.49-10.35-2.39-.06-.01-.1-.01-.15-.04-1.13-.28-2.23-.59-3.33-.92-1.13-.33-2.26-.67-3.39-1.01-1.11-.36-2.23-.71-3.34-1.08-1.11-.39-2.23-.76-3.33-1.16-2.17-.76-4.32-1.59-6.46-2.45-.03-.01-.06-.01-.09-.04-1.07-.45-2.15-.89-3.22-1.35-6.42-2.75-12.61-5.91-18.58-9.42-64.62,45.15-147.65,69.09-236.02,61.78-4.83-.4-9.62-.89-14.38-1.47-1.1,1.34-2.21,2.66-3.39,3.95-.43.49-.88.98-1.32,1.47-.58.62-1.16,1.25-1.77,1.87-.59.61-1.19,1.22-1.8,1.81-.39.4-.79.79-1.19,1.16-1.2,1.16-2.45,2.3-3.7,3.42-.7.61-1.4,1.2-2.11,1.8-.8.67-1.6,1.32-2.42,1.98-.8.64-1.63,1.28-2.47,1.9-.83.62-1.66,1.23-2.51,1.83-.85.61-1.71,1.19-2.57,1.77-.88.58-1.74,1.14-2.63,1.71-2.64,1.66-5.36,3.22-8.14,4.66-.94.49-1.87.95-2.81,1.41-2.84,1.38-5.72,2.64-8.67,3.79-.97.37-1.95.73-2.91,1.08-.04,0-.07.01-.1.03-11.96,4.23-24.82,6.53-38.23,6.53-48.79,0-90.43-30.53-106.9-73.53-2.51.07-5.03.12-7.57.12-80.61,0-153.05-34.98-202.99-90.57,0,.01-.01.03-.01.04-1.22,2.73-2.58,5.38-4.1,7.95-7.22,12.42-17.55,22.78-29.93,30.06-12.39,7.28-26.82,11.47-42.24,11.47-40.5,0-74.27-28.83-81.91-67.08-9.7,1.04-19.53,1.59-29.48,1.59-83.61,0-158.42-37.63-208.47-96.86l-.03.03c-6.22,7.5-13.72,13.89-22.17,18.85-12.37,7.23-26.78,11.39-42.15,11.39-46.13,0-83.54-37.4-83.54-83.54,0-15.22,4.1-29.48,11.2-41.76-1.66-1.22-3.31-2.47-4.96-3.74h-.07c-5.03-3.91-9.88-8.02-14.54-12.34,22.37,4.8,39.7.94,39.7.94,18.93,77.96,135.91,120.7,219.42,127.6,52.78,4.37,63.42,17.08,109.85,1.75,28.11,21.16,63.24,35.12,102.1,38.35,15.19,1.25,30.09.79,44.47-1.22,18.97,67.96,118.89,63.55,199.76,70.23,8.7.73,17.32.86,25.78.49,39.48,41.82,90.88,74.38,149.79,92.99,25.63-1.74,63.68-10.8,92.78-45.36l.03-.03,7.57,4.83c25.16,15.19,54.64,23.96,86.2,23.96,8.51,0,16.86-.64,25.02-1.86,13.99-2.11,27.42-5.94,40.04-11.29,1.05-.45,2.11-.91,3.15-1.37,3.12-1.4,6.19-2.9,9.21-4.47,4.02-2.11,7.95-4.38,11.78-6.8,1.9-1.22,3.79-2.47,5.66-3.74.92-.65,1.84-1.29,2.76-1.96.91-.65,1.83-1.32,2.72-2.01.91-.68,1.8-1.37,2.69-2.06.06-.04.16-.12.31-.24.43-.34.86-.7,1.31-1.04.18-.15.37-.31.58-.48.74-.59,1.49-1.2,2.21-1.84.28-.24.56-.49.88-.74.61-.52,1.25-1.08,1.95-1.68.46-.4.94-.82,1.44-1.26,8.78-7.72,22.72-20.99,34.9-36.86,19.19-25.03,32.81,25.05,33.27,26.75,16.6,14.45,38.44,24.12,62.94,26.14,56.88,4.69,106.44-33.34,110.72-84.98.48-5.81.33-11.54-.33-17.14,11.48,2.2,23.21,3.83,35.17,4.81,93.85,7.77,180.85-24.49,240.82-81.28Z"/>
</svg>