<?xml version="1.0" encoding="UTF-8"?>
<svg id="Layer_1" data-name="Layer 1" xmlns="http://www.w3.org/2000/svg" viewBox="0 0 2000 2000">
  <defs>
    <style>
      .cls-1 {
        fill: #fff;
      }

      .cls-2 {
        fill: #e6e6e6;
      }

      .cls-3 {
        fill: #ccc;
      }

      .cls-4 {
        fill: #f2f2f2;
      }
    </style>
  </defs>
  <path class="cls-1" d="m1888.94,1182.22c0,52.13-23.88,98.69-61.29,129.31-28.81,23.61-65.66,37.77-105.79,37.77-.28,0-.56-.01-.86-.01-3.13,31.13-14.81,59.73-32.67,83.44-30.46,40.5-78.95,66.7-133.55,66.7-64.49,0-120.42-36.52-148.28-90.02-27.86,53.5-83.79,90.02-148.28,90.02-56.94,0-107.23-28.5-137.39-72-48.59,44.7-113.44,72-184.66,72-106.34,0-198.45-60.85-243.46-149.62-42.46,27.27-92.99,43.07-147.19,43.07-112.41,0-208.93-67.99-250.71-165.09-80.94-28.01-144.58-93.05-170.67-174.86-8.36-26.17-12.86-54.04-12.86-82.99,0-31.63,5.39-62.02,15.3-90.27,8.38-23.9,19.98-46.28,34.31-66.61,49.37-70.11,130.93-115.93,223.22-115.93,48.76,0,94.53,12.8,134.14,35.21,34.52-133.53,155.78-232.16,300.11-232.16s262.52,96.15,298.75,227.11c2.29,8.29,4.25,16.71,5.85,25.25.18.92.34,1.84.5,2.76,1.6-.03,3.21-.06,4.83-.06,9.06,0,17.99.5,26.78,1.5h.03c9.46,1.07,18.76,2.7,27.85,4.87,27.48,6.53,53.08,17.87,75.89,33.06,57.86-60.12,139.14-97.55,229.19-97.55,175.64,0,318.02,142.37,318.02,318.02,0,7.49-.28,14.9-.79,22.26,16.43,9.48,31.08,21.67,43.38,35.96,25.13,29.24,40.32,67.28,40.32,108.86Z"/>
  <path class="cls-2" d="m1827.65,1311.53c-28.81,23.61-65.66,37.77-105.79,37.77-.28,0-.56-.01-.86-.01-3.13,31.13-14.81,59.73-32.67,83.44-30.46,40.5-78.95,66.7-133.55,66.7-64.49,0-120.42-36.52-148.28-90.02-27.86,53.5-83.79,90.02-148.28,90.02-56.94,0-107.23-28.5-137.39-72-48.59,44.7-113.44,72-184.66,72-106.34,0-198.45-60.85-243.46-149.62-42.46,27.27-92.99,43.07-147.19,43.07-112.41,0-208.93-67.99-250.71-165.09-80.94-28.01-144.58-93.05-170.67-174.86-8.36-26.17-12.86-54.04-12.86-82.99,0-31.63,5.39-62.02,15.3-90.27,8.38-23.9,19.98-46.28,34.31-66.61,37.52-23.97,85.63-35.7,136.37-29.75,73.78,8.66,133.53,52.46,159.16,109.32,38.12-49.38,106.38-78.15,180.16-69.49,64.16,7.53,117.7,41.64,147.45,87.79l1.38,2.18c8.67-5.41,17.69-10.41,27.02-14.99,55.96-27.56,122.79-39.92,192.67-31.72,91.17,10.71,169.23,54.27,219.97,115.08,16.31,19.56,29.81,40.9,39.97,63.52.42.89.82,1.8,1.22,2.7,11.93-4.93,24.28-9.19,36.98-12.74,19.9-5.58,40.66-9.42,62.04-11.33,24.16-2.18,49.1-1.92,74.44,1.05,128.63,15.1,231.14,95.6,267.63,197.65,48.24,20.9,89.44,51.82,120.34,89.2Z"/>
  <path class="cls-1" d="m1269.68,973.25s-164.22,7.64-244.41,183.31c0,0,157.45-109.37,340.33-132.98,182.87-23.6-95.91-50.33-95.91-50.33Z"/>
  <path class="cls-4" d="m305.8,1157.31s235.43,135.46,470.86-4.62c0,0-217.3,183.37-470.86,4.62Z"/>
  <path class="cls-2" d="m1182.92,761.6c-37.68-3.78-114.77-6.05-161.47,37.25,50.92-49.01,47.1-46.32,101.49-46.32.18.92.34,1.84.5,2.76,1.6-.03,3.21-.06,4.83-.06,9.06,0,17.99.5,26.78,1.5h.03c9.46,1.07,18.76,2.7,27.85,4.87Z"/>
  <path class="cls-2" d="m1511.55,885.41s73.83-73.83,168.04,0c0,0-77.65-43.28-168.04,0Z"/>
  <path class="cls-1" d="m676.32,1132.16s-43.29-170.43,145.98-237.74c0,0-130.44,71.2-145.98,237.74Z"/>
  <path class="cls-1" d="m1679.56,1281.49s-2.59,104.38-121.72,115.84c0,0,86.09-22.18,121.72-115.84Z"/>
  <path class="cls-3" d="m1688.33,1432.72c-30.46,40.5-78.95,66.7-133.55,66.7-64.49,0-120.42-36.52-148.28-90.02-27.86,53.5-83.79,90.02-148.28,90.02-56.94,0-107.23-28.5-137.39-72-48.59,44.7-113.44,72-184.66,72-106.34,0-198.45-60.85-243.46-149.62-42.46,27.27-92.99,43.07-147.19,43.07-112.41,0-208.93-67.99-250.71-165.09-80.94-28.01-144.58-93.05-170.67-174.86,6.12,19.2,33.26,42.9,47.74,57.3,18.91,18.81,39.82,35.56,62.39,49.79,36.32,22.9,78.59,42.06,120.36,52.5,0,0-7.63,92.15,126.03,68.99,0,0,57.28,84.1,236.78,3.74,5.02,22.23,14.45,44.53,26.66,63.7,25.77,40.46,73.92,53.04,119.38,50.27,23.51-1.43,46.83-6.56,69.05-14.28,5.83-2.03,56.52-26.97,57.96-25.38,0,0,53.5,59.2,111.73,17.18,0,0,41.03,114.58,300.73,5.73,0,0,171.22,112.14,285.4,50.27Z"/>
</svg>